<svg enable-background="new 0 0 1920 1080" viewBox="0 0 1920 1080" xmlns="http://www.w3.org/2000/svg"><g fill="#2a3dc6"><path d="m1521.02 717.24c-2.76-.79-4.81 0-5.78.54-1.06.59-1.86 1.46-2.09 2.26-.6 6.96-2.07 12.99-4.36 18.08 1.62-.86 3.14-1.62 4.53-2.31 6.07-3.01 9.74-4.83 11.12-9.59.74-2.55.64-4.88-.29-6.55-.66-1.19-1.75-2.03-3.13-2.43z"/><path d="m1473.41 637.08c-46.81 0-84.76 37.95-84.76 84.76 0 46.81 37.95 84.76 84.76 84.76 46.81 0 84.76-37.95 84.76-84.76 0-46.81-37.95-84.76-84.76-84.76zm12.37 32.54 3.33 3.19c-5.65 5.9-4.16 7.91-1.68 11.25 2.51 3.39 5.95 8.03-.47 16.07l-3.6-2.88c4.21-5.27 2.68-7.33.37-10.45-2.66-3.58-6.29-8.48 2.05-17.18zm-14.89 0 3.33 3.19c-5.65 5.9-4.16 7.91-1.68 11.25 2.51 3.39 5.95 8.03-.47 16.07l-3.6-2.88c4.21-5.27 2.68-7.33.37-10.45-2.65-3.58-6.28-8.48 2.05-17.18zm-14.88 0 3.33 3.19c-5.65 5.9-4.15 7.91-1.68 11.25 2.51 3.39 5.95 8.03-.47 16.07l-3.6-2.88c4.21-5.27 2.68-7.33.37-10.45-2.66-3.58-6.28-8.48 2.05-17.18zm57.49 95.48h-84.72v-4.61h84.72zm15.37-37.59c-1.94 6.71-7.04 9.23-13.49 12.44-3.54 1.76-7.56 3.75-11.98 6.83-6.55 7.56-16.2 11.45-28.82 11.45h-6.87c-25.47 0-38.94-15.84-38.94-45.81v-6.88h84.75v6.88c0 .38-.03.73-.03 1.1 2.66-1.32 5.76-1.59 8.81-.71 2.58.74 4.62 2.35 5.89 4.64 1.51 2.76 1.76 6.33.68 10.06z"/><path d="m1508.9 710.15h-75.53v2.28c0 27.34 11.55 41.2 34.33 41.2h6.87c22.78 0 34.33-13.86 34.33-41.2zm-7.68 16.03h-60.17v-4.61h60.17z"/><path d="m1046.25 735.41h102.52c1.42 0 2.58-1.16 2.58-2.58v-4.88c0-4.11-3.35-7.46-7.46-7.46h-92.75c-4.11 0-7.46 3.35-7.46 7.46v4.88c-.01 1.42 1.15 2.58 2.57 2.58z"/><path d="m1143.88 715.88c.05 0 .09.01.14.01v-21.14c0-1.12-.68-2.09-1.7-2.43-8.77-2.9-25.15-6.01-44.81-6.01-19.67 0-36.04 3.1-44.81 6.01-1.02.34-1.7 1.31-1.7 2.43v21.14c.05 0 .09-.01.14-.01zm-87.73-4.61c0-5.69 3.79-12.47 21.83-12.47 11.08 0 16.78 2.56 19.53 5.86 2.75-3.29 8.44-5.86 19.53-5.86 18.04 0 21.83 6.78 21.83 12.47v2.03h-4.61v-2.03c0-6.5-9.37-7.87-17.22-7.87-7.86 0-17.22 1.36-17.22 7.87v2.03h-4.61v-2.03c0-6.5-9.37-7.87-17.22-7.87-7.86 0-17.22 1.36-17.22 7.87v2.03h-4.61v-2.03z"/><path d="m1097.51 637.08c-46.81 0-84.76 37.95-84.76 84.76 0 46.81 37.95 84.76 84.76 84.76 46.81 0 84.76-37.95 84.76-84.76 0-46.81-37.95-84.76-84.76-84.76zm58.44 95.75c0 1.89-.75 3.6-1.94 4.88 1.2 1.28 1.94 2.99 1.94 4.88v9.63h-4.88v7.46h-4.61v-7.46h-97.91v7.46h-4.61v-7.46h-4.88v-9.63c0-1.89.75-3.6 1.94-4.88-1.2-1.28-1.94-2.99-1.94-4.88v-4.88c0-4.97 3.02-9.24 7.32-11.09v-22.11c0-3.11 1.95-5.84 4.86-6.8 11.8-3.91 29.09-6.24 46.26-6.24s34.46 2.33 46.26 6.24c2.91.96 4.86 3.7 4.86 6.8v22.11c4.3 1.85 7.32 6.12 7.32 11.09v4.88z"/><path d="m1148.77 740.01h-102.52c-1.42 0-2.58 1.16-2.58 2.58v5.02h107.67v-5.02c0-1.42-1.15-2.58-2.57-2.58z"/><path d="m1285.46 637.08c-46.81 0-84.76 37.95-84.76 84.76 0 46.81 37.95 84.76 84.76 84.76 46.81 0 84.76-37.95 84.76-84.76 0-46.81-37.95-84.76-84.76-84.76zm17.93 31.82h4.61v29.23h-4.61zm-8.99 0h4.61v29.23h-4.61zm-17.88 98.94c0 4.99-4.06 9.05-9.05 9.05s-9.05-4.06-9.05-9.05l2.14-32.11-6.74-2.25.11-1.77c.09-1.43 2.28-35.11 3.41-43.29 1.13-8.13 5.72-19.58 12.38-19.58 4.99 0 6.8 4.07 6.8 6.8zm40.47-69.71c0 10.05-2.84 13.04-7.42 14.6-.89.3-1.48 1.19-1.44 2.14l2.11 52.87c0 5.28-3.97 9.35-9.05 9.35-5.07 0-9.05-4.07-9.05-9.26l2.12-52.96c.04-.96-.55-1.84-1.44-2.14-4.58-1.57-7.42-4.56-7.42-14.6v-29.23h4.61v29.23c0 8.77 2.19 9.52 4.31 10.25 2.8.96 4.67 3.71 4.55 6.69l-2.11 52.87c0 2.56 1.91 4.56 4.44 4.56s4.44-2 4.44-4.65l-2.11-52.78c-.12-2.98 1.75-5.73 4.55-6.69 2.12-.72 4.31-1.47 4.31-10.25v-29.23h4.61v29.23z"/><path d="m1269.72 673.45c-2.27 0-6.56 6.55-7.81 15.6-.97 6.96-2.79 33.98-3.26 41.18l6.75 2.25-2.37 35.51c.01 2.3 2 4.29 4.45 4.29s4.44-1.99 4.44-4.44v-92.2c-.04-.98-.44-2.19-2.2-2.19z"/><path d="m400.53 291.82-38.7-18.43v312.68h38.7v-127.49h90.29v127.49h38.69v-129.33l-36.85-36.86h-92.13z"/><path d="m1422.45 419.88v-128.06l-38.69-18.43v312.68h38.69v-127.49h90.29v127.49h38.7v-129.33l-36.85-36.86z"/><path d="m642.25 415.24c-23.79 0-43.78 8.62-59.99 25.86-15.75 16.89-23.62 37.35-23.62 61.37s7.87 44.48 23.62 61.37c16.09 17.47 36.08 26.2 59.99 26.2 23.79 0 43.73-8.79 59.82-26.37 15.74-17.01 23.62-37.52 23.62-61.54 0-23.9-7.93-44.24-23.79-61.02-16.1-17.25-35.98-25.87-59.65-25.87zm34.13 123.08c-9.08 10.69-20.46 16.03-34.13 16.03-13.56 0-24.94-5.34-34.13-16.03-8.73-10.11-13.1-22.07-13.1-35.86 0-14.02 4.31-26.03 12.93-36.03 9.08-10.34 20.51-15.51 34.3-15.51s25.17 5.23 34.13 15.69c8.62 9.88 12.93 21.84 12.93 35.85 0 13.8-4.31 25.75-12.93 35.86z"/><path d="m835.14 420.59c-7.01 0-12.76.69-17.24 2.07-5.4 1.5-10.69 3.79-15.86 6.9-4.71 2.99-9.42 5.98-14.13 8.96-.34.23-.63.34-.86.34-1.49 0-2.53-3.39-3.1-10.17-.57-6.67-1.75-10.04-3.54-10.15-.05.16-5.82 1.3-17.32 3.43-7.7.92-13.68 1.61-17.93 2.07-1.5.58-2.24 1.55-2.24 2.93 0 .46.11 1.15.34 2.07 5.29 17.24 7.93 40.05 7.93 68.43 0 9.43-.14 23.5-.43 42.23s-.43 32.75-.43 42.06c0 2.87 1.32 4.31 3.97 4.31 3.56 0 8.96.06 16.2.17s12.64.17 16.2.17c2.64 0 3.96-1.55 3.96-4.66 0-6.43-.26-16.2-.78-29.3s-.78-22.87-.78-29.3v-18.96c0-15.63 1.21-25.91 3.62-30.86 4.02-8.16 13.27-12.24 27.75-12.24 2.53 0 6.23.26 11.12.78 4.88.52 8.53.78 10.95.78 1.95 0 3.1-1.32 3.45-3.96 1.72-10.34 2.59-21.83 2.59-34.48.01-2.42-4.48-3.62-13.44-3.62z"/><path d="m780.32 418.52c.03 0 .05.02.08.02.01-.02-.01-.02-.08-.02z"/><path d="m1013.55 493.5c0-22.07-7.07-40.79-21.2-56.2-14.48-15.86-32.52-23.79-54.13-23.79-23.21 0-42.81 9.14-58.78 27.41-15.17 17.58-22.75 38.21-22.75 61.88 0 26.55 7.93 47.78 23.79 63.69 15.86 15.92 37.12 23.88 63.78 23.88 26.43 0 48.09-8.96 64.99-26.89 1.84-1.95 2.76-3.28 2.76-3.96 0-.57-2.01-4.74-6.03-12.5s-6.18-11.75-6.46-11.98c-.29-.23-.89-.35-1.81-.35-1.84 1.5-3.68 2.99-5.52 4.48-15.17 11.72-31.83 17.58-49.99 17.58-10.57 0-20.46-3.39-29.65-10.17-9.65-7.12-15.23-15.74-16.72-25.86 66.19-4.94 101.76-8.33 106.7-10.17 7.34-2.85 11.02-8.54 11.02-17.05zm-51.02-7.06c-23.68 3.45-44.02 5.17-61.02 5.17-4.14 0-6.21-1.21-6.21-3.62 0-10.57 4.11-20.11 12.33-28.62 8.21-8.5 17.61-12.76 28.18-12.76 9.42 0 17.9 3.68 25.43 11.03 7.53 7.36 11.29 15.8 11.29 25.34 0 1.39-3.34 2.54-10 3.46z"/><path d="m1115.77 449.37c6.21 0 11.92 1.15 17.15 3.45s10.43 4.6 15.6 6.89c1.03 0 2.87-4.37 5.52-13.1 2.64-8.73 3.97-14.36 3.97-16.89 0-1.03-1.15-2.24-3.45-3.62-13.33-8.16-28.04-12.24-44.13-12.24-24.02 0-44.07 8.73-60.16 26.2-15.63 17.01-23.44 37.69-23.44 62.06 0 23.9 7.99 44.47 23.96 61.71 16.32 17.7 36.31 26.55 59.99 26.55 5.4 0 13.73-1.44 25-4.31 13.45-3.45 20.17-6.95 20.17-10.51 0-3.33-.86-9.37-2.59-18.1-1.84-9.65-3.51-14.48-5-14.48.92 0-2.36 1.9-9.83 5.69s-15.06 5.69-22.75 5.69c-13.91 0-25.68-5.29-35.34-15.86-9.42-10.23-14.13-22.35-14.13-36.37 0-14.25 4.71-26.6 14.13-37.06 9.42-10.47 21.2-15.7 35.33-15.7z"/><path d="m1332.97 424.55c-8.51-1.72-14.31-2.59-17.41-2.59-1.96 0-3.56 3.62-4.83 10.86s-2.24 10.86-2.93 10.86c-.34 0-.69-.17-1.03-.52-4.14-4.37-7.18-7.7-9.14-10-13.1-12.18-28.44-18.27-46.03-18.27-24.94 0-45.05 8.68-60.33 26.03-14.6 16.66-21.89 37.75-21.89 63.26 0 22.64 7.24 42.47 21.72 59.47 15.28 17.81 34.07 26.72 56.37 26.72 9.08 0 18.16-2.3 27.24-6.9 5.86-2.87 12.18-7.07 18.96-12.58 5.52-4.48 8.62-6.72 9.31-6.72 1.03 0 2.13 4.02 3.28 12.07s2.81 12.07 5 12.07c3.1 0 7.84-.37 14.22-1.12s11.15-1.12 14.31-1.12 4.68-1.66 4.57-5l-.17-2.41c-2.87-50.45-4.31-76.25-4.31-77.4 0-19.07 2.24-41.77 6.72-68.09.34-1.61.52-2.64.52-3.1-.01-1.61-4.72-3.45-14.15-5.52zm-42.57 113.43c-9.08 10.92-20.34 16.38-33.79 16.38-13.79 0-25.28-5.34-34.48-16.03-8.85-10.23-13.27-22.29-13.27-36.2 0-14.02 4.42-26.2 13.27-36.55 9.19-10.8 20.69-16.2 34.48-16.2s25.11 5.46 33.96 16.38c8.39 10.11 12.58 22.24 12.58 36.37 0 13.67-4.25 25.62-12.75 35.85z"/></g></svg>