<!DOCTYPE svg PUBLIC "-//W3C//DTD SVG 1.1//EN" "http://www.w3.org/Graphics/SVG/1.1/DTD/svg11.dtd">
<!-- Uploaded to: SVG Repo, www.svgrepo.com, Transformed by: SVG Repo Mixer Tools -->
<svg fill="#1C1C1C" width="96px" height="96px" viewBox="0 0 24.00 24.00" xmlns="http://www.w3.org/2000/svg">
<g id="SVGRepo_bgCarrier" stroke-width="0"/>
<g id="SVGRepo_tracerCarrier" stroke-linecap="round" stroke-linejoin="round"/>
<g id="SVGRepo_iconCarrier">
<path d="M12,1A11,11,0,1,0,23,12,11.013,11.013,0,0,0,12,1Zm0,20a9.641,9.641,0,0,1-5.209-1.674,7,7,0,0,1,10.418,0A9.167,9.167,0,0,1,12,21Zm6.694-3.006a8.98,8.98,0,0,0-13.388,0,9,9,0,1,1,13.388,0ZM12,6a4,4,0,1,0,4,4A4,4,0,0,0,12,6Zm0,6a2,2,0,1,1,2-2A2,2,0,0,1,12,12Z"/>
</g>
</svg>